<svg width="52" height="52" viewBox="0 0 52 52" fill="none" xmlns="http://www.w3.org/2000/svg">
<rect width="52" height="52" rx="10" fill="#020C02"/>
<path d="M38.028 28.54V30.93H12.668V28.54C12.668 23.96 16.398 20.23 20.978 20.23H29.728C34.308 20.23 38.028 23.96 38.028 28.54V28.54Z" fill="#F1B24A"/>
<path d="M47.773 21.721C46.651 20.835 45.548 20.425 44.66 20.095C43.223 19.56 42.739 19.38 42.739 17.855V17.201C44.81 16.879 46.388 15.298 46.388 13.389V10.539C46.388 9.98898 45.938 9.53898 45.388 9.53898H45.311V7.13098C45.311 6.86576 45.2056 6.61141 45.0181 6.42387C44.8306 6.23634 44.5762 6.13098 44.311 6.13098C44.0458 6.13098 43.7914 6.23634 43.6039 6.42387C43.4163 6.61141 43.311 6.86576 43.311 7.13098V9.53898H40.621V7.13098C40.621 6.86576 40.5156 6.61141 40.3281 6.42387C40.1406 6.23634 39.8862 6.13098 39.621 6.13098C39.3558 6.13098 39.1014 6.23634 38.9139 6.42387C38.7263 6.61141 38.621 6.86576 38.621 7.13098V9.53898H38.548C37.988 9.53898 37.548 9.98898 37.548 10.539V13.389C37.548 15.153 38.901 16.627 40.738 17.098V17.855C40.738 20.77 42.452 21.407 43.964 21.97C44.797 22.28 45.659 22.6 46.533 23.29C46.9924 23.6506 47.3635 24.1112 47.6182 24.6367C47.8729 25.1623 48.0045 25.739 48.003 26.323C48.0022 26.9785 47.7414 27.607 47.2777 28.0704C46.8141 28.5339 46.1855 28.7945 45.53 28.795C44.8387 28.7969 44.1571 28.9582 43.5382 29.2664C42.9194 29.5746 42.38 30.0214 41.962 30.572L39.599 33.7C39.454 33.44 39.309 33.182 39.147 32.931H8.38399C8.21099 32.931 8.04799 32.907 7.89399 32.868C4.56699 34.706 1.99799 37.689 1.99799 41.679C1.99799 42.229 2.44799 42.679 2.99799 42.679H5.11599C5.0596 42.3486 5.03017 42.0141 5.02799 41.679C5.02799 38.261 7.80499 35.479 11.218 35.479C14.636 35.479 17.418 38.261 17.418 41.679C17.418 42.02 17.383 42.353 17.329 42.679H26.456C26.3996 42.3486 26.3702 42.0141 26.368 41.679C26.368 38.261 29.145 35.479 32.558 35.479C35.977 35.479 38.758 38.261 38.758 41.679C38.758 42.02 38.723 42.353 38.669 42.679H40.258C40.768 42.679 41.198 42.289 41.258 41.779C41.478 39.723 41.218 37.679 40.538 35.773L43.558 31.777C43.7891 31.4727 44.0872 31.2258 44.4292 31.0555C44.7712 30.8852 45.1479 30.796 45.53 30.795C46.7156 30.7937 47.8523 30.3221 48.6907 29.4837C49.5291 28.6453 50.0007 27.5086 50.002 26.323C50.0045 25.4369 49.8049 24.5619 49.4185 23.7644C49.0321 22.967 48.469 22.2682 47.772 21.721H47.773V21.721Z" fill="#9DC88D"/>
<path d="M11.218 37.48C10.1054 37.48 9.03838 37.922 8.25167 38.7087C7.46495 39.4954 7.02298 40.5624 7.02298 41.675C7.02298 42.7876 7.46495 43.8546 8.25167 44.6413C9.03838 45.428 10.1054 45.87 11.218 45.87C13.528 45.87 15.418 43.99 15.418 41.68C15.418 39.36 13.528 37.48 11.218 37.48ZM32.558 37.48C31.4454 37.48 30.3784 37.922 29.5917 38.7087C28.805 39.4954 28.363 40.5624 28.363 41.675C28.363 42.7876 28.805 43.8546 29.5917 44.6413C30.3784 45.428 31.4454 45.87 32.558 45.87C34.868 45.87 36.758 43.99 36.758 41.68C36.758 39.36 34.868 37.48 32.558 37.48Z" fill="#fff"/>
</svg>
