<svg xmlns="http://www.w3.org/2000/svg" width="52" height="52" viewBox="0 0 64 64"><style>.B{stroke-miterlimit:10}.C{stroke-width:2}</style><g stroke="#000" class="B"><g stroke-width="3"><rect width="42" height="7" x="3" y="54" fill="#9dc88d" rx="2.79"/><rect width="22" height="36" x="13" y="7" fill="#f1b24a" rx="7.64"/></g><path fill="#9dc88d" d="M20.79 3h6.42A11.79 11.79 0 0 1 39 14.79V54H9V14.79A11.79 11.79 0 0 1 20.79 3Z" class="C"/></g><path fill="#fff" stroke="#fff" d="M22 35h4.4v3H22zm5.4-23H21l1 19h4.4l1-19z" class="B C"/><g stroke-width="3" class="B"><path fill="#f1b24a" stroke="#f1b24a" d="M57.76 24h-1.52A3.24 3.24 0 0 1 53 20.76v-1.67A1.09 1.09 0 0 1 54.09 18h5.82A1.09 1.09 0 0 1 61 19.09v1.67A3.24 3.24 0 0 1 57.76 24Z"/><path fill="none" stroke="#000" stroke-linecap="round" d="M59 14v3.5M55 14v3.5"/></g><path fill="none" stroke="#000" d="M39 11h1.3a4.75 4.75 0 0 1 4.7 4.75v26.5A4.75 4.75 0 0 0 49.75 47h2.5A4.75 4.75 0 0 0 57 42.25V24" class="B C"/></svg>